<?xml version="1.0" encoding="utf-8"?>
<!-- Generator: Adobe Illustrator 21.1.0, SVG Export Plug-In . SVG Version: 6.00 Build 0)  -->
<svg version="1.1" id="Layer_1" xmlns="http://www.w3.org/2000/svg" xmlns:xlink="http://www.w3.org/1999/xlink" x="0px" y="0px"
	 viewBox="0 0 122.3 149" style="enable-background:new 0 0 122.3 149;" xml:space="preserve">
<style type="text/css">
	.st0{fill:#007EBE;}
	.st1{fill:#D1D3D4;}
	.st2{fill:#FFFFFF;}
</style>
<g id="drop">
	<path class="st0" d="M0,89.4c0-15.5,6.2-28.6,16.5-40.3c10.2-11.6,21.7-21.9,31.8-33.5c3.8-4.4,7.4-8.9,10.6-13.7
		c1.3-1.9,2.4-2.8,4-0.3c9.8,15.2,23.6,27.1,36,40.3c9.6,10.3,18.4,20.9,21.7,34.9c7.6,32.3-11.7,65.3-48.2,70.8
		c-36.1,7.7-66.4-16-71.7-48.5C0.2,95.8,0,92.6,0,89.4z"/>
</g>
<g id="square">
	<rect x="26.4" y="39.6" class="st1" width="69.3" height="99.1"/>
</g>
<polygon class="st2" points="95.8,39.6 26.3,39.6 60.1,138.7 "/>
</svg>
